<svg width="33" height="32" viewBox="0 0 33 32" fill="none" xmlns="http://www.w3.org/2000/svg">
<path d="M27.8999 24H4.43326C3.55114 24 2.83325 24.673 2.83325 25.5C2.83325 26.878 4.02898 28 5.49992 28H26.8333C28.3042 28 29.4999 26.878 29.4999 25.5C29.4999 24.673 28.782 24 27.8999 24Z" fill="#393939"/>
<path d="M3.39392 14.6666H28.9239C29.0572 14.6666 29.2023 14.6023 29.3015 14.5152C29.3986 14.4291 29.4594 14.3119 29.4711 14.1854C29.6439 12.5158 29.037 10.8825 27.7143 9.45963C25.3462 6.91474 20.9217 5.33325 16.1675 5.33325C11.4058 5.33325 6.97692 6.91783 4.61211 9.46895C3.28938 10.8949 2.68565 12.5303 2.86378 14.202C2.89155 14.4654 3.12088 14.6666 3.39392 14.6666ZM23.2566 9.63282C23.4646 9.43062 23.8027 9.43062 24.0108 9.63282L25.0774 10.6698C25.2854 10.8731 25.2854 11.2008 25.0774 11.403C24.9739 11.5047 24.8374 11.5555 24.7009 11.5555C24.5644 11.5555 24.4278 11.5047 24.3233 11.403L23.2566 10.366C23.0486 10.1638 23.0486 9.83608 23.2566 9.63282ZM18.9899 11.7069L20.0565 10.6699C20.2645 10.4677 20.6027 10.4677 20.8107 10.6699C21.0187 10.8732 21.0187 11.2008 20.8107 11.4031L19.744 12.4401C19.6405 12.5417 19.504 12.5925 19.3675 12.5925C19.231 12.5925 19.0944 12.5417 18.9899 12.4401C18.7819 12.2379 18.7819 11.9102 18.9899 11.7069ZM15.7898 7.55876C15.9978 7.35656 16.336 7.35656 16.544 7.55876L17.6107 8.59579C17.8187 8.79905 17.8187 9.12673 17.6107 9.32898C17.5072 9.43062 17.3707 9.48141 17.2341 9.48141C17.0976 9.48141 16.9611 9.43062 16.8565 9.32898L15.7898 8.29196C15.5818 8.08971 15.5818 7.76203 15.7898 7.55876ZM11.5231 9.63282L12.5898 8.59579C12.7978 8.39359 13.1359 8.39359 13.3439 8.59579C13.5519 8.79905 13.5519 9.12673 13.3439 9.32898L12.2773 10.366C12.1738 10.4676 12.0372 10.5184 11.9007 10.5184C11.7642 10.5184 11.6276 10.4676 11.5231 10.366C11.3151 10.1638 11.3151 9.83608 11.5231 9.63282ZM7.25636 10.6699C7.46434 10.4677 7.80249 10.4677 8.01052 10.6699L9.07719 11.7069C9.28517 11.9102 9.28517 12.2379 9.07719 12.4401C8.9737 12.5417 8.83718 12.5925 8.70066 12.5925C8.56414 12.5925 8.42757 12.5417 8.32304 12.4401L7.25636 11.4031C7.04838 11.2008 7.04838 10.8732 7.25636 10.6699Z" fill="#393939"/>
<path d="M4.68826 16C4.39921 16 4.1665 16.224 4.1665 16.5C4.1665 16.776 4.39921 17 4.68826 17H12.9119L19.0632 19.947C19.1373 19.983 19.2166 20 19.2969 20C19.4315 20 19.5651 19.95 19.6652 19.853L22.6433 17H27.6447C27.9327 17 28.1665 16.7761 28.1665 16.5C28.1665 16.224 27.9328 16 27.6447 16H4.68826Z" fill="#393939"/>
<path d="M4.96724 22.6665H27.367C28.6619 22.6665 29.6891 21.5805 29.4704 20.3285C29.2976 19.3455 28.3099 18.6665 27.2475 18.6665H23.9836L20.3313 22.0905C20.007 22.3946 19.511 22.4705 19.1004 22.2776L11.396 18.6666H5.08563C4.02326 18.6666 3.03552 19.3455 2.86271 20.3285C2.64405 21.5805 3.67231 22.6665 4.96724 22.6665Z" fill="#393939"/>
</svg>
