<svg width="33" height="32" viewBox="0 0 33 32" fill="none" xmlns="http://www.w3.org/2000/svg">
<path d="M4.88886 13.1798C5.74668 14.6319 6.69239 16.0195 7.71964 17.3333H8.48788C8.39106 16.7262 8.25339 16.1277 8.07599 15.5427C7.3977 13.3727 6.21513 11.4331 4.64448 9.91454L5.24076 9.194C6.92499 10.8241 8.19244 12.9058 8.91842 15.2344C9.03573 15.6171 9.13214 16.0094 9.2179 16.4057C9.25789 16.3259 9.29921 16.2472 9.33431 16.1626C10.3345 13.7316 9.84839 9.86057 7.72275 8.51771C7.21244 8.2295 6.65403 8.05751 6.08126 8.01213C5.50849 7.96676 4.93325 8.04894 4.39033 8.25371C4.14262 8.32244 3.91045 8.44612 3.70822 8.61706C3.50598 8.78801 3.33799 9.00258 3.21465 9.24748C2.97871 9.89947 3.62654 11.044 4.88886 13.1798Z" fill="#393939"/>
<path d="M16.4992 12.7576C16.464 12.4736 16.394 12.1952 16.2907 11.9289C15.5668 10.0674 13.4541 9.0298 12.1883 9.4119C11.7727 9.55393 11.4141 9.8293 11.1667 10.1963C12.022 12.0843 12.1189 14.2354 11.437 16.1945C11.4635 16.1616 11.495 16.1324 11.521 16.1004C12.5075 14.8077 13.1171 13.261 13.2809 11.6353L14.204 11.7379C14.0239 13.5399 13.3464 15.2541 12.2491 16.6839C12.0722 16.9107 11.8776 17.1239 11.6789 17.3333H13.8204L13.859 17.3149C13.6154 16.3559 13.7566 15.3382 14.2515 14.4845C14.7465 13.6307 15.5549 13.0103 16.5001 12.759L16.4992 12.7576Z" fill="#393939"/>
<path d="M24.7744 17.3334H29.8333C29.5116 16.938 29.061 16.6306 28.5367 16.4489C28.1943 16.351 27.837 16.2961 27.4759 16.2861C27.0122 16.257 26.4863 16.2235 26.2429 15.8109C25.9903 15.3781 26.3353 15.0134 26.6121 14.7199C26.8935 14.4605 27.0992 14.1488 27.2127 13.8097C27.4622 12.8862 27.4653 11.3362 26.4469 10.8503C26.2103 10.7478 25.9517 10.6868 25.6867 10.6709C25.4216 10.655 25.1556 10.6846 24.9043 10.7577C24.1462 10.9509 23.5024 11.3803 23.1024 11.9597C22.7089 12.6051 22.9388 13.3207 23.161 14.0119C23.3833 14.7031 23.6157 15.4299 23.0034 15.9287C22.3816 16.4365 21.4734 16.2287 20.594 16.0251C20.6683 16.4621 20.6363 16.9073 20.5 17.3334H23.7475C23.8738 16.7266 24.0162 16.119 24.1814 15.5212C24.4643 14.4996 24.8088 13.4771 25.2053 12.4825L26.162 12.7568C25.7761 13.7257 25.4407 14.722 25.1654 15.7175C25.0179 16.2505 24.8901 16.7922 24.7744 17.3334Z" fill="#393939"/>
<path d="M19.0221 17.3333C19.1038 17.0716 19.1525 16.7982 19.1668 16.5211L18.4264 16.8013L18.145 15.8405L19.072 15.4895C18.9328 14.9397 18.6599 14.4457 18.2845 14.0642C17.9091 13.6828 17.4466 13.4294 16.9501 13.3333V14.2991H16.0596V13.3333C15.6337 13.4159 15.2317 13.6146 14.8881 13.9121C14.5444 14.2097 14.2694 14.5974 14.0864 15.042L14.8646 15.3368L14.5833 16.2976L13.8473 16.0185C13.8383 16.1193 13.8337 16.2205 13.8335 16.3219C13.8329 16.6666 13.885 17.0088 13.9875 17.3333H19.0221ZM16.0596 15.3105H16.9501V16.3219H16.0596V15.3105Z" fill="#393939"/>
<path d="M7.16675 17.3333C6.58223 16.9024 6.01949 16.4579 5.47851 16C5.00095 16.0962 4.53874 16.2184 4.09751 16.365C3.73919 16.4593 3.44764 16.6273 3.27455 16.8393C3.16798 16.9956 3.13963 17.1674 3.19304 17.3333H7.16675Z" fill="#393939"/>
<path d="M3.16675 18.6667C3.29382 21.8884 4.70353 24.9374 7.10037 27.1745C9.4972 29.4116 12.6951 30.6631 16.0236 30.6667H16.9766C20.3051 30.6631 23.503 29.4116 25.8998 27.1745C28.2966 24.9374 29.7063 21.8884 29.8334 18.6667H3.16675ZM11.0513 28.3129C8.79728 27.2592 6.90707 25.5949 5.60975 23.5217L6.42456 23.0426C7.62661 24.9634 9.37772 26.5054 11.4659 27.4821L11.0513 28.3129ZM13.1646 28.8206H12.2116V27.8975H13.1646V28.8206Z" fill="#393939"/>
<path d="M23.1668 6.39992V5.33325H21.3891C20.4461 5.33325 19.5417 5.78277 18.8749 6.58293C18.2081 7.38308 17.8335 8.46833 17.8335 9.59992V10.6666H19.6113C20.5543 10.6666 21.4586 10.2171 22.1254 9.41691C22.7922 8.61675 23.1668 7.53151 23.1668 6.39992Z" fill="#393939"/>
<path d="M14.5002 6.66658C14.8684 6.66658 15.1668 6.36811 15.1668 5.99992C15.1668 5.63173 14.8684 5.33325 14.5002 5.33325C14.132 5.33325 13.8335 5.63173 13.8335 5.99992C13.8335 6.36811 14.132 6.66658 14.5002 6.66658Z" fill="#393939"/>
<path d="M7.83341 5.33333C8.2016 5.33333 8.50008 5.03486 8.50008 4.66667C8.50008 4.29848 8.2016 4 7.83341 4C7.46522 4 7.16675 4.29848 7.16675 4.66667C7.16675 5.03486 7.46522 5.33333 7.83341 5.33333Z" fill="#393939"/>
</svg>
